%TF.GenerationSoftware,KiCad,Pcbnew,(5.1.10)-1*%
%TF.CreationDate,2021-06-24T19:27:42+08:00*%
%TF.ProjectId,hoperf_arduino,686f7065-7266-45f6-9172-6475696e6f2e,rev?*%
%TF.SameCoordinates,Original*%
%TF.FileFunction,Paste,Top*%
%TF.FilePolarity,Positive*%
%FSLAX46Y46*%
G04 Gerber Fmt 4.6, Leading zero omitted, Abs format (unit mm)*
G04 Created by KiCad (PCBNEW (5.1.10)-1) date 2021-06-24 19:27:42*
%MOMM*%
%LPD*%
G01*
G04 APERTURE LIST*
%ADD10C,0.100000*%
%ADD11R,0.580000X1.730000*%
%ADD12R,2.800000X1.000000*%
%ADD13R,0.900000X0.800000*%
%ADD14R,1.524000X3.302000*%
G04 APERTURE END LIST*
D10*
%TO.C,U1*%
G36*
X124763500Y-131080000D02*
G01*
X125350000Y-131080000D01*
X125350000Y-129580000D01*
X126110000Y-129580000D01*
X126110000Y-131080000D01*
X126696500Y-131080000D01*
X126696500Y-134109999D01*
X124763500Y-134109999D01*
X124763500Y-131080000D01*
G37*
D11*
X124230000Y-130445000D03*
X127230000Y-130445000D03*
%TD*%
D12*
%TO.C,SW1*%
X85132000Y-136652000D03*
X90932000Y-136652000D03*
X85132000Y-140652000D03*
X90932000Y-140652000D03*
%TD*%
%TO.C,R24*%
G36*
G01*
X126155000Y-123427500D02*
X126155000Y-122952500D01*
G75*
G02*
X126392500Y-122715000I237500J0D01*
G01*
X126892500Y-122715000D01*
G75*
G02*
X127130000Y-122952500I0J-237500D01*
G01*
X127130000Y-123427500D01*
G75*
G02*
X126892500Y-123665000I-237500J0D01*
G01*
X126392500Y-123665000D01*
G75*
G02*
X126155000Y-123427500I0J237500D01*
G01*
G37*
G36*
G01*
X124330000Y-123427500D02*
X124330000Y-122952500D01*
G75*
G02*
X124567500Y-122715000I237500J0D01*
G01*
X125067500Y-122715000D01*
G75*
G02*
X125305000Y-122952500I0J-237500D01*
G01*
X125305000Y-123427500D01*
G75*
G02*
X125067500Y-123665000I-237500J0D01*
G01*
X124567500Y-123665000D01*
G75*
G02*
X124330000Y-123427500I0J237500D01*
G01*
G37*
%TD*%
%TO.C,R15*%
G36*
G01*
X130539500Y-110469000D02*
X130064500Y-110469000D01*
G75*
G02*
X129827000Y-110231500I0J237500D01*
G01*
X129827000Y-109731500D01*
G75*
G02*
X130064500Y-109494000I237500J0D01*
G01*
X130539500Y-109494000D01*
G75*
G02*
X130777000Y-109731500I0J-237500D01*
G01*
X130777000Y-110231500D01*
G75*
G02*
X130539500Y-110469000I-237500J0D01*
G01*
G37*
G36*
G01*
X130539500Y-112294000D02*
X130064500Y-112294000D01*
G75*
G02*
X129827000Y-112056500I0J237500D01*
G01*
X129827000Y-111556500D01*
G75*
G02*
X130064500Y-111319000I237500J0D01*
G01*
X130539500Y-111319000D01*
G75*
G02*
X130777000Y-111556500I0J-237500D01*
G01*
X130777000Y-112056500D01*
G75*
G02*
X130539500Y-112294000I-237500J0D01*
G01*
G37*
%TD*%
%TO.C,R14*%
G36*
G01*
X122411500Y-110469000D02*
X121936500Y-110469000D01*
G75*
G02*
X121699000Y-110231500I0J237500D01*
G01*
X121699000Y-109731500D01*
G75*
G02*
X121936500Y-109494000I237500J0D01*
G01*
X122411500Y-109494000D01*
G75*
G02*
X122649000Y-109731500I0J-237500D01*
G01*
X122649000Y-110231500D01*
G75*
G02*
X122411500Y-110469000I-237500J0D01*
G01*
G37*
G36*
G01*
X122411500Y-112294000D02*
X121936500Y-112294000D01*
G75*
G02*
X121699000Y-112056500I0J237500D01*
G01*
X121699000Y-111556500D01*
G75*
G02*
X121936500Y-111319000I237500J0D01*
G01*
X122411500Y-111319000D01*
G75*
G02*
X122649000Y-111556500I0J-237500D01*
G01*
X122649000Y-112056500D01*
G75*
G02*
X122411500Y-112294000I-237500J0D01*
G01*
G37*
%TD*%
%TO.C,R13*%
G36*
G01*
X117839500Y-110469000D02*
X117364500Y-110469000D01*
G75*
G02*
X117127000Y-110231500I0J237500D01*
G01*
X117127000Y-109731500D01*
G75*
G02*
X117364500Y-109494000I237500J0D01*
G01*
X117839500Y-109494000D01*
G75*
G02*
X118077000Y-109731500I0J-237500D01*
G01*
X118077000Y-110231500D01*
G75*
G02*
X117839500Y-110469000I-237500J0D01*
G01*
G37*
G36*
G01*
X117839500Y-112294000D02*
X117364500Y-112294000D01*
G75*
G02*
X117127000Y-112056500I0J237500D01*
G01*
X117127000Y-111556500D01*
G75*
G02*
X117364500Y-111319000I237500J0D01*
G01*
X117839500Y-111319000D01*
G75*
G02*
X118077000Y-111556500I0J-237500D01*
G01*
X118077000Y-112056500D01*
G75*
G02*
X117839500Y-112294000I-237500J0D01*
G01*
G37*
%TD*%
%TO.C,R12*%
G36*
G01*
X109965500Y-110469000D02*
X109490500Y-110469000D01*
G75*
G02*
X109253000Y-110231500I0J237500D01*
G01*
X109253000Y-109731500D01*
G75*
G02*
X109490500Y-109494000I237500J0D01*
G01*
X109965500Y-109494000D01*
G75*
G02*
X110203000Y-109731500I0J-237500D01*
G01*
X110203000Y-110231500D01*
G75*
G02*
X109965500Y-110469000I-237500J0D01*
G01*
G37*
G36*
G01*
X109965500Y-112294000D02*
X109490500Y-112294000D01*
G75*
G02*
X109253000Y-112056500I0J237500D01*
G01*
X109253000Y-111556500D01*
G75*
G02*
X109490500Y-111319000I237500J0D01*
G01*
X109965500Y-111319000D01*
G75*
G02*
X110203000Y-111556500I0J-237500D01*
G01*
X110203000Y-112056500D01*
G75*
G02*
X109965500Y-112294000I-237500J0D01*
G01*
G37*
%TD*%
%TO.C,R11*%
G36*
G01*
X105139500Y-110573000D02*
X104664500Y-110573000D01*
G75*
G02*
X104427000Y-110335500I0J237500D01*
G01*
X104427000Y-109835500D01*
G75*
G02*
X104664500Y-109598000I237500J0D01*
G01*
X105139500Y-109598000D01*
G75*
G02*
X105377000Y-109835500I0J-237500D01*
G01*
X105377000Y-110335500D01*
G75*
G02*
X105139500Y-110573000I-237500J0D01*
G01*
G37*
G36*
G01*
X105139500Y-112398000D02*
X104664500Y-112398000D01*
G75*
G02*
X104427000Y-112160500I0J237500D01*
G01*
X104427000Y-111660500D01*
G75*
G02*
X104664500Y-111423000I237500J0D01*
G01*
X105139500Y-111423000D01*
G75*
G02*
X105377000Y-111660500I0J-237500D01*
G01*
X105377000Y-112160500D01*
G75*
G02*
X105139500Y-112398000I-237500J0D01*
G01*
G37*
%TD*%
%TO.C,R10*%
G36*
G01*
X97519500Y-110573000D02*
X97044500Y-110573000D01*
G75*
G02*
X96807000Y-110335500I0J237500D01*
G01*
X96807000Y-109835500D01*
G75*
G02*
X97044500Y-109598000I237500J0D01*
G01*
X97519500Y-109598000D01*
G75*
G02*
X97757000Y-109835500I0J-237500D01*
G01*
X97757000Y-110335500D01*
G75*
G02*
X97519500Y-110573000I-237500J0D01*
G01*
G37*
G36*
G01*
X97519500Y-112398000D02*
X97044500Y-112398000D01*
G75*
G02*
X96807000Y-112160500I0J237500D01*
G01*
X96807000Y-111660500D01*
G75*
G02*
X97044500Y-111423000I237500J0D01*
G01*
X97519500Y-111423000D01*
G75*
G02*
X97757000Y-111660500I0J-237500D01*
G01*
X97757000Y-112160500D01*
G75*
G02*
X97519500Y-112398000I-237500J0D01*
G01*
G37*
%TD*%
%TO.C,R9*%
G36*
G01*
X105393500Y-96857000D02*
X104918500Y-96857000D01*
G75*
G02*
X104681000Y-96619500I0J237500D01*
G01*
X104681000Y-96119500D01*
G75*
G02*
X104918500Y-95882000I237500J0D01*
G01*
X105393500Y-95882000D01*
G75*
G02*
X105631000Y-96119500I0J-237500D01*
G01*
X105631000Y-96619500D01*
G75*
G02*
X105393500Y-96857000I-237500J0D01*
G01*
G37*
G36*
G01*
X105393500Y-98682000D02*
X104918500Y-98682000D01*
G75*
G02*
X104681000Y-98444500I0J237500D01*
G01*
X104681000Y-97944500D01*
G75*
G02*
X104918500Y-97707000I237500J0D01*
G01*
X105393500Y-97707000D01*
G75*
G02*
X105631000Y-97944500I0J-237500D01*
G01*
X105631000Y-98444500D01*
G75*
G02*
X105393500Y-98682000I-237500J0D01*
G01*
G37*
%TD*%
%TO.C,R8*%
G36*
G01*
X97519500Y-96857000D02*
X97044500Y-96857000D01*
G75*
G02*
X96807000Y-96619500I0J237500D01*
G01*
X96807000Y-96119500D01*
G75*
G02*
X97044500Y-95882000I237500J0D01*
G01*
X97519500Y-95882000D01*
G75*
G02*
X97757000Y-96119500I0J-237500D01*
G01*
X97757000Y-96619500D01*
G75*
G02*
X97519500Y-96857000I-237500J0D01*
G01*
G37*
G36*
G01*
X97519500Y-98682000D02*
X97044500Y-98682000D01*
G75*
G02*
X96807000Y-98444500I0J237500D01*
G01*
X96807000Y-97944500D01*
G75*
G02*
X97044500Y-97707000I237500J0D01*
G01*
X97519500Y-97707000D01*
G75*
G02*
X97757000Y-97944500I0J-237500D01*
G01*
X97757000Y-98444500D01*
G75*
G02*
X97519500Y-98682000I-237500J0D01*
G01*
G37*
%TD*%
%TO.C,R7*%
G36*
G01*
X142985500Y-96753500D02*
X142510500Y-96753500D01*
G75*
G02*
X142273000Y-96516000I0J237500D01*
G01*
X142273000Y-96016000D01*
G75*
G02*
X142510500Y-95778500I237500J0D01*
G01*
X142985500Y-95778500D01*
G75*
G02*
X143223000Y-96016000I0J-237500D01*
G01*
X143223000Y-96516000D01*
G75*
G02*
X142985500Y-96753500I-237500J0D01*
G01*
G37*
G36*
G01*
X142985500Y-98578500D02*
X142510500Y-98578500D01*
G75*
G02*
X142273000Y-98341000I0J237500D01*
G01*
X142273000Y-97841000D01*
G75*
G02*
X142510500Y-97603500I237500J0D01*
G01*
X142985500Y-97603500D01*
G75*
G02*
X143223000Y-97841000I0J-237500D01*
G01*
X143223000Y-98341000D01*
G75*
G02*
X142985500Y-98578500I-237500J0D01*
G01*
G37*
%TD*%
%TO.C,R6*%
G36*
G01*
X135365500Y-96499500D02*
X134890500Y-96499500D01*
G75*
G02*
X134653000Y-96262000I0J237500D01*
G01*
X134653000Y-95762000D01*
G75*
G02*
X134890500Y-95524500I237500J0D01*
G01*
X135365500Y-95524500D01*
G75*
G02*
X135603000Y-95762000I0J-237500D01*
G01*
X135603000Y-96262000D01*
G75*
G02*
X135365500Y-96499500I-237500J0D01*
G01*
G37*
G36*
G01*
X135365500Y-98324500D02*
X134890500Y-98324500D01*
G75*
G02*
X134653000Y-98087000I0J237500D01*
G01*
X134653000Y-97587000D01*
G75*
G02*
X134890500Y-97349500I237500J0D01*
G01*
X135365500Y-97349500D01*
G75*
G02*
X135603000Y-97587000I0J-237500D01*
G01*
X135603000Y-98087000D01*
G75*
G02*
X135365500Y-98324500I-237500J0D01*
G01*
G37*
%TD*%
%TO.C,R5*%
G36*
G01*
X130793500Y-96753500D02*
X130318500Y-96753500D01*
G75*
G02*
X130081000Y-96516000I0J237500D01*
G01*
X130081000Y-96016000D01*
G75*
G02*
X130318500Y-95778500I237500J0D01*
G01*
X130793500Y-95778500D01*
G75*
G02*
X131031000Y-96016000I0J-237500D01*
G01*
X131031000Y-96516000D01*
G75*
G02*
X130793500Y-96753500I-237500J0D01*
G01*
G37*
G36*
G01*
X130793500Y-98578500D02*
X130318500Y-98578500D01*
G75*
G02*
X130081000Y-98341000I0J237500D01*
G01*
X130081000Y-97841000D01*
G75*
G02*
X130318500Y-97603500I237500J0D01*
G01*
X130793500Y-97603500D01*
G75*
G02*
X131031000Y-97841000I0J-237500D01*
G01*
X131031000Y-98341000D01*
G75*
G02*
X130793500Y-98578500I-237500J0D01*
G01*
G37*
%TD*%
%TO.C,R4*%
G36*
G01*
X122665500Y-96753500D02*
X122190500Y-96753500D01*
G75*
G02*
X121953000Y-96516000I0J237500D01*
G01*
X121953000Y-96016000D01*
G75*
G02*
X122190500Y-95778500I237500J0D01*
G01*
X122665500Y-95778500D01*
G75*
G02*
X122903000Y-96016000I0J-237500D01*
G01*
X122903000Y-96516000D01*
G75*
G02*
X122665500Y-96753500I-237500J0D01*
G01*
G37*
G36*
G01*
X122665500Y-98578500D02*
X122190500Y-98578500D01*
G75*
G02*
X121953000Y-98341000I0J237500D01*
G01*
X121953000Y-97841000D01*
G75*
G02*
X122190500Y-97603500I237500J0D01*
G01*
X122665500Y-97603500D01*
G75*
G02*
X122903000Y-97841000I0J-237500D01*
G01*
X122903000Y-98341000D01*
G75*
G02*
X122665500Y-98578500I-237500J0D01*
G01*
G37*
%TD*%
%TO.C,R3*%
G36*
G01*
X118093500Y-96753500D02*
X117618500Y-96753500D01*
G75*
G02*
X117381000Y-96516000I0J237500D01*
G01*
X117381000Y-96016000D01*
G75*
G02*
X117618500Y-95778500I237500J0D01*
G01*
X118093500Y-95778500D01*
G75*
G02*
X118331000Y-96016000I0J-237500D01*
G01*
X118331000Y-96516000D01*
G75*
G02*
X118093500Y-96753500I-237500J0D01*
G01*
G37*
G36*
G01*
X118093500Y-98578500D02*
X117618500Y-98578500D01*
G75*
G02*
X117381000Y-98341000I0J237500D01*
G01*
X117381000Y-97841000D01*
G75*
G02*
X117618500Y-97603500I237500J0D01*
G01*
X118093500Y-97603500D01*
G75*
G02*
X118331000Y-97841000I0J-237500D01*
G01*
X118331000Y-98341000D01*
G75*
G02*
X118093500Y-98578500I-237500J0D01*
G01*
G37*
%TD*%
%TO.C,R2*%
G36*
G01*
X110219500Y-96753500D02*
X109744500Y-96753500D01*
G75*
G02*
X109507000Y-96516000I0J237500D01*
G01*
X109507000Y-96016000D01*
G75*
G02*
X109744500Y-95778500I237500J0D01*
G01*
X110219500Y-95778500D01*
G75*
G02*
X110457000Y-96016000I0J-237500D01*
G01*
X110457000Y-96516000D01*
G75*
G02*
X110219500Y-96753500I-237500J0D01*
G01*
G37*
G36*
G01*
X110219500Y-98578500D02*
X109744500Y-98578500D01*
G75*
G02*
X109507000Y-98341000I0J237500D01*
G01*
X109507000Y-97841000D01*
G75*
G02*
X109744500Y-97603500I237500J0D01*
G01*
X110219500Y-97603500D01*
G75*
G02*
X110457000Y-97841000I0J-237500D01*
G01*
X110457000Y-98341000D01*
G75*
G02*
X110219500Y-98578500I-237500J0D01*
G01*
G37*
%TD*%
%TO.C,R1*%
G36*
G01*
X86851500Y-129011000D02*
X86376500Y-129011000D01*
G75*
G02*
X86139000Y-128773500I0J237500D01*
G01*
X86139000Y-128273500D01*
G75*
G02*
X86376500Y-128036000I237500J0D01*
G01*
X86851500Y-128036000D01*
G75*
G02*
X87089000Y-128273500I0J-237500D01*
G01*
X87089000Y-128773500D01*
G75*
G02*
X86851500Y-129011000I-237500J0D01*
G01*
G37*
G36*
G01*
X86851500Y-130836000D02*
X86376500Y-130836000D01*
G75*
G02*
X86139000Y-130598500I0J237500D01*
G01*
X86139000Y-130098500D01*
G75*
G02*
X86376500Y-129861000I237500J0D01*
G01*
X86851500Y-129861000D01*
G75*
G02*
X87089000Y-130098500I0J-237500D01*
G01*
X87089000Y-130598500D01*
G75*
G02*
X86851500Y-130836000I-237500J0D01*
G01*
G37*
%TD*%
%TO.C,FB1*%
G36*
G01*
X113875000Y-122952500D02*
X113875000Y-123427500D01*
G75*
G02*
X113637500Y-123665000I-237500J0D01*
G01*
X113137500Y-123665000D01*
G75*
G02*
X112900000Y-123427500I0J237500D01*
G01*
X112900000Y-122952500D01*
G75*
G02*
X113137500Y-122715000I237500J0D01*
G01*
X113637500Y-122715000D01*
G75*
G02*
X113875000Y-122952500I0J-237500D01*
G01*
G37*
G36*
G01*
X115700000Y-122952500D02*
X115700000Y-123427500D01*
G75*
G02*
X115462500Y-123665000I-237500J0D01*
G01*
X114962500Y-123665000D01*
G75*
G02*
X114725000Y-123427500I0J237500D01*
G01*
X114725000Y-122952500D01*
G75*
G02*
X114962500Y-122715000I237500J0D01*
G01*
X115462500Y-122715000D01*
G75*
G02*
X115700000Y-122952500I0J-237500D01*
G01*
G37*
%TD*%
%TO.C,D1*%
G36*
G01*
X111997500Y-140620000D02*
X111522500Y-140620000D01*
G75*
G02*
X111285000Y-140382500I0J237500D01*
G01*
X111285000Y-139807500D01*
G75*
G02*
X111522500Y-139570000I237500J0D01*
G01*
X111997500Y-139570000D01*
G75*
G02*
X112235000Y-139807500I0J-237500D01*
G01*
X112235000Y-140382500D01*
G75*
G02*
X111997500Y-140620000I-237500J0D01*
G01*
G37*
G36*
G01*
X111997500Y-142370000D02*
X111522500Y-142370000D01*
G75*
G02*
X111285000Y-142132500I0J237500D01*
G01*
X111285000Y-141557500D01*
G75*
G02*
X111522500Y-141320000I237500J0D01*
G01*
X111997500Y-141320000D01*
G75*
G02*
X112235000Y-141557500I0J-237500D01*
G01*
X112235000Y-142132500D01*
G75*
G02*
X111997500Y-142370000I-237500J0D01*
G01*
G37*
%TD*%
%TO.C,C3*%
G36*
G01*
X125251000Y-119142500D02*
X125251000Y-119617500D01*
G75*
G02*
X125013500Y-119855000I-237500J0D01*
G01*
X124413500Y-119855000D01*
G75*
G02*
X124176000Y-119617500I0J237500D01*
G01*
X124176000Y-119142500D01*
G75*
G02*
X124413500Y-118905000I237500J0D01*
G01*
X125013500Y-118905000D01*
G75*
G02*
X125251000Y-119142500I0J-237500D01*
G01*
G37*
G36*
G01*
X126976000Y-119142500D02*
X126976000Y-119617500D01*
G75*
G02*
X126738500Y-119855000I-237500J0D01*
G01*
X126138500Y-119855000D01*
G75*
G02*
X125901000Y-119617500I0J237500D01*
G01*
X125901000Y-119142500D01*
G75*
G02*
X126138500Y-118905000I237500J0D01*
G01*
X126738500Y-118905000D01*
G75*
G02*
X126976000Y-119142500I0J-237500D01*
G01*
G37*
%TD*%
%TO.C,C2*%
G36*
G01*
X120113000Y-123427500D02*
X120113000Y-122952500D01*
G75*
G02*
X120350500Y-122715000I237500J0D01*
G01*
X120950500Y-122715000D01*
G75*
G02*
X121188000Y-122952500I0J-237500D01*
G01*
X121188000Y-123427500D01*
G75*
G02*
X120950500Y-123665000I-237500J0D01*
G01*
X120350500Y-123665000D01*
G75*
G02*
X120113000Y-123427500I0J237500D01*
G01*
G37*
G36*
G01*
X118388000Y-123427500D02*
X118388000Y-122952500D01*
G75*
G02*
X118625500Y-122715000I237500J0D01*
G01*
X119225500Y-122715000D01*
G75*
G02*
X119463000Y-122952500I0J-237500D01*
G01*
X119463000Y-123427500D01*
G75*
G02*
X119225500Y-123665000I-237500J0D01*
G01*
X118625500Y-123665000D01*
G75*
G02*
X118388000Y-123427500I0J237500D01*
G01*
G37*
%TD*%
%TO.C,C1*%
G36*
G01*
X91169500Y-129061000D02*
X90694500Y-129061000D01*
G75*
G02*
X90457000Y-128823500I0J237500D01*
G01*
X90457000Y-128223500D01*
G75*
G02*
X90694500Y-127986000I237500J0D01*
G01*
X91169500Y-127986000D01*
G75*
G02*
X91407000Y-128223500I0J-237500D01*
G01*
X91407000Y-128823500D01*
G75*
G02*
X91169500Y-129061000I-237500J0D01*
G01*
G37*
G36*
G01*
X91169500Y-130786000D02*
X90694500Y-130786000D01*
G75*
G02*
X90457000Y-130548500I0J237500D01*
G01*
X90457000Y-129948500D01*
G75*
G02*
X90694500Y-129711000I237500J0D01*
G01*
X91169500Y-129711000D01*
G75*
G02*
X91407000Y-129948500I0J-237500D01*
G01*
X91407000Y-130548500D01*
G75*
G02*
X91169500Y-130786000I-237500J0D01*
G01*
G37*
%TD*%
D13*
%TO.C,Q7*%
X125492000Y-110932000D03*
X127492000Y-109982000D03*
X127492000Y-111882000D03*
%TD*%
%TO.C,Q6*%
X112792000Y-110932000D03*
X114792000Y-109982000D03*
X114792000Y-111882000D03*
%TD*%
%TO.C,Q5*%
X100346000Y-110998000D03*
X102346000Y-110048000D03*
X102346000Y-111948000D03*
%TD*%
%TO.C,Q4*%
X100362000Y-97348000D03*
X102362000Y-96398000D03*
X102362000Y-98298000D03*
%TD*%
%TO.C,Q3*%
X137954000Y-97028000D03*
X139954000Y-96078000D03*
X139954000Y-97978000D03*
%TD*%
%TO.C,Q2*%
X125746000Y-97028000D03*
X127746000Y-96078000D03*
X127746000Y-97978000D03*
%TD*%
%TO.C,Q1*%
X113046000Y-97028000D03*
X115046000Y-96078000D03*
X115046000Y-97978000D03*
%TD*%
D14*
%TO.C,E1*%
X132842000Y-57404000D03*
X116840000Y-57404000D03*
%TD*%
M02*
