M48
; DRILL file {KiCad (5.1.10)-1} date 06/24/21 19:28:11
; FORMAT={-:-/ absolute / inch / decimal}
; #@! TF.CreationDate,2021-06-24T19:28:11+08:00
; #@! TF.GenerationSoftware,Kicad,Pcbnew,(5.1.10)-1
; #@! TF.FileFunction,Plated,1,2,PTH
FMAT,2
INCH
T1C0.0157
T2C0.0315
T3C0.0394
%
G90
G05
T1
X4.1425Y-4.2898
X4.1514Y-3.7462
X4.1975Y-3.2371
X4.4641Y-4.7829
X4.604Y-4.1818
T2
X4.04Y-2.5646
X4.04Y-3.1
X4.1187Y-2.5646
X4.1187Y-3.1
X4.1975Y-2.5646
X4.1975Y-3.1
X4.2762Y-2.5646
X4.2762Y-3.1
X4.355Y-2.5646
X4.355Y-3.1
X4.4337Y-2.5646
X4.4337Y-3.1
X4.5124Y-2.5646
X4.5124Y-3.1
X4.5912Y-2.5646
X4.5912Y-3.1
T3
X2.15Y-3.75
X2.15Y-3.85
X2.15Y-3.95
X2.15Y-4.05
X2.5Y-3.15
X2.5Y-3.25
X2.5Y-3.35
X2.5Y-3.45
X2.5Y-3.55
X2.5Y-3.65
X2.5Y-3.75
X2.5Y-3.85
X2.5Y-3.95
X2.5Y-4.05
X2.5Y-4.15
X2.5Y-4.25
X2.5Y-4.35
X2.5Y-4.45
X2.5Y-4.55
X3.1Y-3.15
X3.1Y-3.25
X3.1Y-3.35
X3.1Y-3.45
X3.1Y-3.55
X3.1Y-3.65
X3.1Y-3.75
X3.1Y-3.85
X3.1Y-3.95
X3.1Y-4.05
X3.1Y-4.15
X3.1Y-4.25
X3.1Y-4.35
X3.1Y-4.45
X3.1Y-4.55
X4.9Y-5.6
X5.0Y-5.6
T0
M30
