%TF.GenerationSoftware,KiCad,Pcbnew,(5.1.10)-1*%
%TF.CreationDate,2021-06-24T19:27:42+08:00*%
%TF.ProjectId,hoperf_arduino,686f7065-7266-45f6-9172-6475696e6f2e,rev?*%
%TF.SameCoordinates,Original*%
%TF.FileFunction,Copper,L2,Bot*%
%TF.FilePolarity,Positive*%
%FSLAX46Y46*%
G04 Gerber Fmt 4.6, Leading zero omitted, Abs format (unit mm)*
G04 Created by KiCad (PCBNEW (5.1.10)-1) date 2021-06-24 19:27:42*
%MOMM*%
%LPD*%
G01*
G04 APERTURE LIST*
%TA.AperFunction,ComponentPad*%
%ADD10C,1.350000*%
%TD*%
%TA.AperFunction,ComponentPad*%
%ADD11R,1.350000X1.350000*%
%TD*%
%TA.AperFunction,ComponentPad*%
%ADD12O,1.700000X1.700000*%
%TD*%
%TA.AperFunction,ComponentPad*%
%ADD13R,1.700000X1.700000*%
%TD*%
%TA.AperFunction,ComponentPad*%
%ADD14R,1.600000X1.600000*%
%TD*%
%TA.AperFunction,ComponentPad*%
%ADD15O,1.600000X1.600000*%
%TD*%
%TA.AperFunction,ViaPad*%
%ADD16C,0.800000*%
%TD*%
%TA.AperFunction,Conductor*%
%ADD17C,0.250000*%
%TD*%
G04 APERTURE END LIST*
D10*
%TO.P,U2,16*%
%TO.N,GND*%
X102616000Y-65140000D03*
%TO.P,U2,15*%
%TO.N,/L_DIO1*%
X104616000Y-65140000D03*
%TO.P,U2,14*%
%TO.N,/L_DIO0*%
X106616000Y-65140000D03*
%TO.P,U2,13*%
%TO.N,+3V3*%
X108616000Y-65140000D03*
%TO.P,U2,12*%
%TO.N,GND*%
X110616000Y-65140000D03*
%TO.P,U2,11*%
X112616000Y-65140000D03*
%TO.P,U2,10*%
X114616000Y-65140000D03*
%TO.P,U2,9*%
%TO.N,Net-(E1-Pad1)*%
X116616000Y-65140000D03*
%TO.P,U2,8*%
%TO.N,GND*%
X116616000Y-78740000D03*
%TO.P,U2,7*%
X114616000Y-78740000D03*
%TO.P,U2,6*%
%TO.N,/L_RESET*%
X112616000Y-78740000D03*
%TO.P,U2,5*%
%TO.N,/L_CS*%
X110616000Y-78740000D03*
%TO.P,U2,4*%
%TO.N,/L_SCK*%
X108616000Y-78740000D03*
%TO.P,U2,3*%
%TO.N,/L_MOSI*%
X106616000Y-78740000D03*
%TO.P,U2,2*%
%TO.N,/L_MISO*%
X104616000Y-78740000D03*
D11*
%TO.P,U2,1*%
%TO.N,GND*%
X102616000Y-78740000D03*
%TD*%
D12*
%TO.P,BT1,2*%
%TO.N,GND*%
X127000000Y-142240000D03*
D13*
%TO.P,BT1,1*%
%TO.N,+5V*%
X124460000Y-142240000D03*
%TD*%
%TO.P,FC1,1*%
%TO.N,+5V*%
X54610000Y-102870000D03*
D12*
%TO.P,FC1,2*%
%TO.N,GND*%
X54610000Y-100330000D03*
%TO.P,FC1,3*%
%TO.N,/FC_A0*%
X54610000Y-97790000D03*
%TO.P,FC1,4*%
%TO.N,GND*%
X54610000Y-95250000D03*
%TD*%
D14*
%TO.P,A1,1*%
%TO.N,GND*%
X78740000Y-115570000D03*
D15*
%TO.P,A1,17*%
%TO.N,N/C*%
X63500000Y-82550000D03*
%TO.P,A1,2*%
%TO.N,GND*%
X78740000Y-113030000D03*
%TO.P,A1,18*%
X63500000Y-85090000D03*
%TO.P,A1,3*%
%TO.N,/H_RESET*%
X78740000Y-110490000D03*
%TO.P,A1,19*%
%TO.N,/FC_A0*%
X63500000Y-87630000D03*
%TO.P,A1,4*%
%TO.N,GND*%
X78740000Y-107950000D03*
%TO.P,A1,20*%
X63500000Y-90170000D03*
%TO.P,A1,5*%
%TO.N,/H_DIO0*%
X78740000Y-105410000D03*
%TO.P,A1,21*%
%TO.N,GND*%
X63500000Y-92710000D03*
%TO.P,A1,6*%
%TO.N,/H_DIO1*%
X78740000Y-102870000D03*
%TO.P,A1,22*%
%TO.N,GND*%
X63500000Y-95250000D03*
%TO.P,A1,7*%
%TO.N,N/C*%
X78740000Y-100330000D03*
%TO.P,A1,23*%
%TO.N,GND*%
X63500000Y-97790000D03*
%TO.P,A1,8*%
%TO.N,/H_RESET*%
X78740000Y-97790000D03*
%TO.P,A1,24*%
%TO.N,GND*%
X63500000Y-100330000D03*
%TO.P,A1,9*%
X78740000Y-95250000D03*
%TO.P,A1,25*%
X63500000Y-102870000D03*
%TO.P,A1,10*%
X78740000Y-92710000D03*
%TO.P,A1,26*%
X63500000Y-105410000D03*
%TO.P,A1,11*%
X78740000Y-90170000D03*
%TO.P,A1,27*%
%TO.N,N/C*%
X63500000Y-107950000D03*
%TO.P,A1,12*%
%TO.N,GND*%
X78740000Y-87630000D03*
%TO.P,A1,28*%
%TO.N,/H_RESET*%
X63500000Y-110490000D03*
%TO.P,A1,13*%
%TO.N,/H_CS*%
X78740000Y-85090000D03*
%TO.P,A1,29*%
%TO.N,GND*%
X63500000Y-113030000D03*
%TO.P,A1,14*%
%TO.N,/H_MOSI*%
X78740000Y-82550000D03*
%TO.P,A1,30*%
%TO.N,+5V*%
X63500000Y-115570000D03*
%TO.P,A1,15*%
%TO.N,/H_MISO*%
X78740000Y-80010000D03*
%TO.P,A1,16*%
%TO.N,/H_SCK*%
X63500000Y-80010000D03*
%TD*%
D16*
%TO.N,/L_RESET*%
X105220200Y-108961500D03*
%TO.N,+5V*%
X113387500Y-121485800D03*
%TO.N,/L_DIO0*%
X116941600Y-106216600D03*
%TO.N,/L_MOSI*%
X106616000Y-82223100D03*
%TO.N,/L_CS*%
X105446100Y-95152700D03*
%TD*%
D17*
%TO.N,GND*%
X78740000Y-95250000D02*
X78740000Y-96375300D01*
X78740000Y-96375300D02*
X79021400Y-96375300D01*
X79021400Y-96375300D02*
X79865300Y-97219200D01*
X79865300Y-97219200D02*
X79865300Y-105980800D01*
X79865300Y-105980800D02*
X79021400Y-106824700D01*
X79021400Y-106824700D02*
X78740000Y-106824700D01*
X78740000Y-92710000D02*
X78740000Y-95250000D01*
X78740000Y-107950000D02*
X78740000Y-106824700D01*
X102616000Y-78740000D02*
X101615700Y-78740000D01*
X78740000Y-87630000D02*
X92725700Y-87630000D01*
X92725700Y-87630000D02*
X101615700Y-78740000D01*
X78740000Y-90170000D02*
X78740000Y-87630000D01*
X63500000Y-100330000D02*
X55785300Y-100330000D01*
X54610000Y-100330000D02*
X55785300Y-100330000D01*
X63500000Y-100330000D02*
X63500000Y-97790000D01*
X63500000Y-105410000D02*
X63500000Y-106535300D01*
X63500000Y-113030000D02*
X63500000Y-111904700D01*
X63500000Y-111904700D02*
X63218700Y-111904700D01*
X63218700Y-111904700D02*
X62374700Y-111060700D01*
X62374700Y-111060700D02*
X62374700Y-107379200D01*
X62374700Y-107379200D02*
X63218600Y-106535300D01*
X63218600Y-106535300D02*
X63500000Y-106535300D01*
X102616000Y-78740000D02*
X102616000Y-65140000D01*
X78740000Y-113030000D02*
X78740000Y-115570000D01*
X63500000Y-92710000D02*
X63500000Y-90170000D01*
X63500000Y-95250000D02*
X63500000Y-92710000D01*
X63500000Y-97790000D02*
X63500000Y-95250000D01*
X63500000Y-102870000D02*
X63500000Y-100330000D01*
X63500000Y-105410000D02*
X63500000Y-102870000D01*
X78740000Y-90170000D02*
X78740000Y-92710000D01*
%TO.N,/L_RESET*%
X112616000Y-78740000D02*
X112616000Y-101565700D01*
X112616000Y-101565700D02*
X105220200Y-108961500D01*
%TO.N,+5V*%
X113387500Y-121485800D02*
X124460000Y-132558300D01*
X124460000Y-132558300D02*
X124460000Y-142240000D01*
%TO.N,/H_RESET*%
X77614700Y-109107400D02*
X66007900Y-109107400D01*
X66007900Y-109107400D02*
X64625300Y-110490000D01*
X78740000Y-109364700D02*
X77872000Y-109364700D01*
X77872000Y-109364700D02*
X77614700Y-109107400D01*
X78740000Y-98915300D02*
X78458700Y-98915300D01*
X78458700Y-98915300D02*
X77614700Y-99759300D01*
X77614700Y-99759300D02*
X77614700Y-109107400D01*
X63500000Y-110490000D02*
X64625300Y-110490000D01*
X78740000Y-110490000D02*
X78740000Y-109364700D01*
X78740000Y-97790000D02*
X78740000Y-98915300D01*
%TO.N,/L_DIO0*%
X116941600Y-106216600D02*
X117661600Y-105496600D01*
X117661600Y-105496600D02*
X117661600Y-76185600D01*
X117661600Y-76185600D02*
X106616000Y-65140000D01*
%TO.N,/L_MOSI*%
X106616000Y-78740000D02*
X106616000Y-82223100D01*
%TO.N,/L_CS*%
X105446100Y-95152700D02*
X110616000Y-89982800D01*
X110616000Y-89982800D02*
X110616000Y-78740000D01*
%TO.N,/FC_A0*%
X54610000Y-97790000D02*
X54610000Y-96614700D01*
X63500000Y-87630000D02*
X63500000Y-88755300D01*
X63500000Y-88755300D02*
X63218600Y-88755300D01*
X63218600Y-88755300D02*
X55359200Y-96614700D01*
X55359200Y-96614700D02*
X54610000Y-96614700D01*
%TD*%
M02*
